<svg width="28" height="28" viewBox="0 0 28 28" fill="none" xmlns="http://www.w3.org/2000/svg">
<path d="M22.4583 9.625H19.8333C17.99 9.625 17.2083 8.84333 17.2083 7V4.375L22.4583 9.625ZM23.3333 11.375V21C23.3333 23.3333 22.1667 24.5 19.8333 24.5H9.33334C7.00001 24.5 5.83334 23.3333 5.83334 21V7C5.83334 4.66667 7.00001 3.5 9.33334 3.5H15.4583V7C15.4583 9.82333 17.01 11.375 19.8333 11.375H23.3333ZM16.0417 18.6667C16.0417 18.1837 15.6497 17.7917 15.1667 17.7917H10.5C10.017 17.7917 9.62501 18.1837 9.62501 18.6667C9.62501 19.1497 10.017 19.5417 10.5 19.5417H15.1667C15.6497 19.5417 16.0417 19.1497 16.0417 18.6667ZM19.5417 14C19.5417 13.517 19.1497 13.125 18.6667 13.125H10.5C10.017 13.125 9.62501 13.517 9.62501 14C9.62501 14.483 10.017 14.875 10.5 14.875H18.6667C19.1497 14.875 19.5417 14.483 19.5417 14Z" fill="#25314C"/>
</svg>
