<svg width="32" height="32" viewBox="0 0 32 32" fill="none" xmlns="http://www.w3.org/2000/svg">
<path fill-rule="evenodd" clip-rule="evenodd" d="M24 28H19.7334C19.5121 28 19.3333 27.8213 19.3333 27.6V22C19.3333 20.1587 17.8413 18.6667 16 18.6667C14.1587 18.6667 12.6667 20.1587 12.6667 22V27.6C12.6667 27.8213 12.4879 28 12.2666 28H8C5.33333 28 4 26.6667 4 24V15.5347C4 12.8707 4.6974 12.4614 5.90674 11.4481L13.8587 4.77998C15.0974 3.74131 16.9041 3.74131 18.1427 4.77998L26.0947 11.4481C27.3027 12.4614 28.0013 12.8707 28.0013 15.5347V24C28 26.6667 26.6667 28 24 28Z" fill="#25314C"/>
</svg>
