<svg width="28" height="28" viewBox="0 0 28 28" fill="none" xmlns="http://www.w3.org/2000/svg">
<path d="M14 2.33325C7.55651 2.33325 2.33334 7.55642 2.33334 13.9999C2.33334 20.4434 7.55651 25.6666 14 25.6666C20.4435 25.6666 25.6667 20.4434 25.6667 13.9999C25.6667 7.55642 20.4435 2.33325 14 2.33325ZM14.0094 8.16659C15.9426 8.16659 17.5094 9.73342 17.5094 11.6666C17.5094 13.5998 15.9426 15.1666 14.0094 15.1666C12.0762 15.1666 10.5094 13.5998 10.5094 11.6666C10.5094 9.73342 12.0762 8.16659 14.0094 8.16659ZM14 23.9166C11.4217 23.9166 9.06502 22.9249 7.30336 21.3033C7.81669 19.6933 9.14672 18.1649 12.0051 18.1649H15.995C18.8416 18.1649 20.1717 19.7049 20.6967 21.3033C18.935 22.9249 16.5783 23.9166 14 23.9166Z" fill="#25314C"/>
</svg>
